<?xml version="1.0" encoding="utf-8"?>
<!-- Generator: Adobe Illustrator 26.0.2, SVG Export Plug-In . SVG Version: 6.00 Build 0)  -->
<svg version="1.1" id="Capa_1" xmlns="http://www.w3.org/2000/svg" xmlns:xlink="http://www.w3.org/1999/xlink" x="0px" y="0px"
	 viewBox="0 0 2122 2122" style="enable-background:new 0 0 2122 2122;" xml:space="preserve">
<style type="text/css">
	.st0{fill:#FFCD00;stroke:#F7A50C;stroke-width:26.9082;stroke-miterlimit:10;}
	.st1{fill:#FFE06E;}
	.st2{fill:#F7A50C;}
	.st3{fill:#FACEC8;}
	.st4{display:none;fill:#FFFFFF;stroke:#000000;stroke-miterlimit:10;}
</style>
<g>
	
		<ellipse transform="matrix(0.7071 -0.7071 0.7071 0.7071 -439.3406 1060.6614)" class="st0" cx="1060.66" cy="1060.66" rx="835.62" ry="835.62"/>
	<path class="st1" d="M1675.21,1060.66c0,339.41-275.14,614.55-614.55,614.55s-614.56-275.14-614.56-614.55
		c0-339.4,275.15-614.56,614.56-614.56S1675.21,721.26,1675.21,1060.66z"/>
	<path class="st2" d="M1114.83,1622.16c-339.41,0-614.56-275.14-614.56-614.56c0-158.04,59.71-302.09,157.72-410.98
		c-129.73,112.67-211.89,278.71-211.89,464.04c0,339.41,275.15,614.55,614.56,614.55c181.37,0,344.34-78.6,456.83-203.56
		C1409.63,1565.32,1268.91,1622.16,1114.83,1622.16z"/>
	<g>
		<path class="st2" d="M1009.58,1584.65v-83.62c-68.35,1.38-202.2-97.73-202.2-97.73l82.46-114.15c0,0,95.19,62.95,149.03,66.8
			c53.96,3.85,109.21-30.83,115.63-75.8c7.26-50.88-12.65-98.21-109.2-154.17c-130.55-75.66-234.05-135.91-234.05-255.72
			c0-114.31,81.26-201.08,207.96-221.76v-90.38h85.4v84.89c96.14,10.17,168.11,75.43,168.11,75.43l-70.68,113.33
			c0,0-45.6-41.43-101.39-57.05c-57.91-16.2-116.7,32.33-119.59,69.9c-2.57,33.38,7.39,87.87,127.2,137.45
			c141.87,57.86,205.7,158.12,205.7,280.68c0,108.8-75.75,210.71-217.61,234.13v87.75H1009.58z"/>
	</g>
	<rect x="1048.5" y="275.16" class="st2" width="24.31" height="117.9"/>
	<rect x="1048.5" y="1717.96" class="st2" width="24.31" height="117.89"/>
	<rect x="1723.12" y="1043.35" class="st2" width="117.89" height="24.32"/>
	<rect x="280.32" y="1043.35" class="st2" width="117.89" height="24.32"/>
	
		<rect x="1511.82" y="533.24" transform="matrix(0.7071 -0.7071 0.7071 0.7071 74.4409 1270.5132)" class="st2" width="117.9" height="24.32"/>
	<polygon class="st2" points="517.47,1615.89 500.28,1598.7 583.64,1515.35 600.82,1532.52 	"/>
	<polygon class="st2" points="1520.48,1532.52 1537.68,1515.35 1621.05,1598.69 1603.85,1615.89 	"/>
	
		<rect x="538.39" y="486.46" transform="matrix(0.7072 -0.707 0.707 0.7072 -224.4061 548.9352)" class="st2" width="24.32" height="117.89"/>
	
		<rect x="1275.59" y="375.96" transform="matrix(0.3795 -0.9252 0.9252 0.3795 469.0438 1475.5736)" class="st2" width="117.9" height="24.32"/>
	<polygon class="st2" points="775.65,1782.05 753.16,1772.81 797.92,1663.74 820.41,1673 	"/>
	<polygon class="st2" points="1668.9,1318.25 1678.13,1295.76 1787.2,1340.51 1777.96,1363.02 	"/>
	
		<rect x="381.11" y="722.68" transform="matrix(0.3796 -0.9252 0.9252 0.3796 -479.1349 848.8024)" class="st2" width="24.32" height="117.9"/>
	
		<rect x="1667.28" y="765.09" transform="matrix(0.9225 -0.3859 0.3859 0.9225 -166.2294 726.394)" class="st2" width="117.9" height="24.32"/>
	<polygon class="st2" points="345.39,1367.71 336,1345.28 444.78,1299.82 454.16,1322.24 	"/>
	<polygon class="st2" points="1304.95,1671.39 1327.4,1662 1372.88,1770.77 1350.43,1780.15 	"/>
	<polygon class="st2" points="748.45,340.23 770.89,330.86 816.36,439.63 793.92,449.01 	"/>
	<path class="st3" d="M1459.86,647.52c132.86,135.2,182.98,332.57,138.47,376.3c-44.48,43.73-188.26-30.45-321.14-165.65
		c-132.85-135.22-204.51-280.25-160.02-323.97C1161.66,490.48,1326.98,512.32,1459.86,647.52z"/>
</g>
<path class="st4" d="M1428.3,2045.15"/>
</svg>
